<svg xmlns="http://www.w3.org/2000/svg" width="32" height="32" viewBox="0 0 32 32">
  <g fill="none" fill-rule="evenodd">
    <circle cx="16" cy="16" r="16" fill="#8247E5"/>
    <path fill="#FFF" d="M21.092 12.693c-.369-.215-.848-.215-1.254 0l-2.879 1.654-1.955 1.078-2.879 1.653c-.369.216-.848.216-1.254 0l-2.288-1.294c-.369-.215-.627-.61-.627-1.042V12.19c0-.431.221-.826.627-1.042l2.25-1.258c.37-.216.85-.216 1.256 0l2.25 1.258c.37.216.628.611.628 1.042v1.654l1.955-1.115v-1.653c0-.432-.22-.827-.627-1.043l-4.17-2.372c-.369-.215-.848-.215-1.254 0l-4.244 2.372c-.443.216-.664.611-.664 1.043v4.78c0 .432.221.827.627 1.043l4.207 2.372c.37.215.85.215 1.255 0l2.879-1.618 1.955-1.114 2.879-1.617c.37-.216.85-.216 1.255 0l2.25 1.258c.37.215.628.61.628 1.042v2.552c0 .431-.221.826-.627 1.042l-2.25 1.294c-.37.216-.85.216-1.255 0l-2.251-1.258c-.369-.216-.627-.611-.627-1.042v-1.654l-1.955 1.115v1.653c0 .432.22.827.627 1.043l4.207 2.372c.37.215.849.215 1.255 0l4.207-2.372c.37-.216.627-.611.627-1.043v-4.78c0-.431-.22-.826-.627-1.042l-4.133-2.409z"/>
  </g>
</svg>

